Coordinates
version=1
nRows=30
nColumns=23
inDegrees=yes

Units are S.I. units (second, meters, Newtons, ...)
Angles are in degrees.

endheader
time	pelvis_tilt	pelvis_list	pelvis_rotation	pelvis_tx	pelvis_ty	pelvis_tz	hip_flexion_r	hip_adduction_r	hip_rotation_r	knee_angle_r	knee_angle_r_beta	ankle_angle_r	subtalar_angle_r	mtp_angle_r	hip_flexion_l	hip_adduction_l	hip_rotation_l	knee_angle_l	knee_angle_l_beta	ankle_angle_l	subtalar_angle_l	mtp_angle_l
    120.99555600	     -1.98654492	      3.83530093	      1.42936322	     -0.02749622	      1.28378909	      0.21171315	     33.03839870	     -9.12699848	      1.02403706	     50.96600131	      0.88952453	     -6.87035022	      0.00000000	      0.00000000	     77.23712114	      1.67123531	      6.16282076	    109.04966160	      1.90327564	      8.86571597	      0.00000000	      0.00000000
    121.00444400	     -1.80415579	      3.23007429	      1.44939960	     -0.02740391	      1.28375096	      0.21130265	     33.45954686	     -8.66420863	      0.89357077	     53.66354250	      0.93660550	     -6.93868349	      0.00000000	      0.00000000	     76.56531161	      1.59232403	      6.66508408	    107.13840014	      1.86991784	      9.38092851	      0.00000000	      0.00000000
    121.01333300	     -1.59555902	      3.34906449	      1.21810435	     -0.02730552	      1.28390272	      0.21168732	     34.09686723	     -8.66878640	      1.49839929	     56.75055798	      0.99048409	     -5.67764220	      0.00000000	      0.00000000	     75.48619583	      1.42871071	      6.30773868	    104.88775662	      1.83063670	     10.28715760	      0.00000000	      0.00000000
    121.02222200	     -1.43074434	      2.63945934	      1.22783330	     -0.02707255	      1.28373940	      0.21132380	     34.67737791	     -8.10320368	      1.30966132	     59.63168312	      1.04076921	     -5.66011281	      0.00000000	      0.00000000	     74.46938625	      1.19441457	      6.82985833	    102.63481841	      1.79131551	     10.80073709	      0.00000000	      0.00000000
    121.03111100	     -1.09539104	      2.77432773	      0.90215372	     -0.02691520	      1.28403057	      0.21175224	     35.32177905	     -8.08397910	      1.96263230	     62.82726831	      1.09654269	     -4.45572377	      0.00000000	      0.00000000	     72.87380358	      0.89671410	      6.38533046	     99.99748993	      1.74528544	     11.56563261	      0.00000000	      0.00000000
    121.04000000	     -0.81284583	      2.39330498	      0.68693781	     -0.02663815	      1.28409295	      0.21186007	     35.97549879	     -7.65800254	      2.19768292	     65.90898467	      1.15032879	     -3.71740859	      0.00000000	      0.00000000	     71.29231868	      0.47512221	      6.45911469	     97.32942711	      1.69871896	     12.10723795	      0.00000000	      0.00000000
    121.04888900	     -0.50104215	      1.99793009	      0.48640524	     -0.02634813	      1.28418336	      0.21195076	     36.65542585	     -7.23204381	      2.40603176	     69.01390527	      1.20451988	     -3.14542416	      0.00000000	      0.00000000	     69.53433018	      0.01261495	      6.50181121	     94.50706890	      1.64945952	     12.54935378	      0.00000000	      0.00000000
    121.05777800	     -0.22487855	      1.46740156	      0.22894554	     -0.02600145	      1.28419996	      0.21208513	     37.41650175	     -6.63747627	      2.58195490	     72.10499932	      1.25846965	     -2.44634514	      0.00000000	      0.00000000	     67.69766592	     -0.61303238	      6.61564622	     91.59158886	      1.59857479	     12.86662374	      0.00000000	      0.00000000
    121.06666700	      0.07639764	      0.96876982	     -0.04654483	     -0.02562055	      1.28432603	      0.21224857	     38.20938099	     -6.06551872	      2.76798956	     75.17776665	      1.31209955	     -1.83349665	      0.00000000	      0.00000000	     65.68535907	     -1.28335438	      6.63290199	     88.53617826	      1.54524782	     13.09596440	      0.00000000	      0.00000000
    121.07555600	      0.39510451	      0.45491280	     -0.33331534	     -0.02523264	      1.28451449	      0.21236885	     39.04330827	     -5.48692947	      2.93782470	     78.22172095	      1.36522658	     -1.31942734	      0.00000000	      0.00000000	     63.52880651	     -1.99570677	      6.61147594	     85.36786610	      1.48995034	     13.25867390	      0.00000000	      0.00000000
    121.08444400	      0.69577653	     -0.12402317	     -0.64838198	     -0.02481770	      1.28479536	      0.21251665	     39.94566909	     -4.83356977	      3.05690001	     81.19927595	      1.41719472	     -0.86021330	      0.00000000	      0.00000000	     61.27079919	     -2.80257013	      6.57539737	     82.10162698	      1.43294371	     13.34027244	      0.00000000	      0.00000000
    121.09333300	      0.93781171	     -0.81066611	     -0.98566052	     -0.02445299	      1.28499756	      0.21268648	     40.97357346	     -4.06946063	      3.11492730	     84.11220713	      1.46803496	     -0.44115390	      0.00000000	      0.00000000	     59.00956458	     -3.72940804	      6.54927980	     78.78544351	      1.37506539	     13.29915679	      0.00000000	      0.00000000
    121.10222200	      1.19335353	     -1.50091707	     -1.34151234	     -0.02411988	      1.28526148	      0.21282224	     42.05845228	     -3.31160606	      3.14695237	     86.96535796	      1.51783183	     -0.16135857	      0.00000000	      0.00000000	     56.63642463	     -4.69816085	      6.42474284	     75.39777830	      1.31593948	     13.20068586	      0.00000000	      0.00000000
    121.11111100	      1.27292468	     -2.40646311	     -1.71670705	     -0.02377039	      1.28532436	      0.21302200	     43.37594955	     -2.35230916	      3.01528602	     89.71654642	      1.56584913	      0.08262277	      0.00000000	      0.00000000	     54.43486854	     -5.86615670	      6.37900825	     72.02170458	      1.25701588	     12.88124040	      0.00000000	      0.00000000
    121.12000000	      1.29808751	     -3.32320982	     -2.06270280	     -0.02343666	      1.28541664	      0.21308535	     44.80870145	     -1.44689260	      2.79457343	     92.35201327	      1.61184670	      0.14804570	      0.00000000	      0.00000000	     52.22854761	     -7.02710638	      6.27518185	     68.60659114	      1.19741090	     12.53637807	      0.00000000	      0.00000000
    121.12888900	      1.39062426	     -4.04367581	     -2.51956633	     -0.02328841	      1.28565683	      0.21334493	     46.29401861	     -0.64723001	      2.74095401	     94.91244077	      1.65653459	      0.13398030	      0.00000000	      0.00000000	     49.84644276	     -8.16158410	      5.80684511	     65.11969761	      1.13655313	     12.07697837	      0.00000000	      0.00000000
    121.13777800	      1.18276691	     -5.23090810	     -2.64606591	     -0.02299949	      1.28552474	      0.21287663	     48.04194449	      0.18232336	      1.99595987	     97.23913121	      1.69714300	     -0.04294377	      0.00000000	      0.00000000	     47.93950807	     -9.33944911	      5.95007813	     61.81277075	      1.07883637	     11.80844588	      0.00000000	      0.00000000
    121.14666700	      1.18037508	     -5.80309717	     -3.36790611	     -0.02312184	      1.28566159	      0.21361137	     49.82707383	      1.04733307	      2.13876162	     99.60624984	      1.73845702	     -0.20079609	      0.00000000	      0.00000000	     45.62474062	    -10.61078787	      4.93208031	     58.40761395	      1.01940517	     10.49143295	      0.00000000	      0.00000000
    121.15555600	      1.02275426	     -6.51634941	     -3.78102961	     -0.02318215	      1.28564125	      0.21370951	     51.75752099	      1.69389479	      1.86792482	    101.75973292	      1.77604239	     -0.49904500	      0.00000000	      0.00000000	     43.58351410	    -11.68697531	      4.24117015	     55.15605121	      0.96265470	      9.50654131	      0.00000000	      0.00000000
    121.16444400	      0.74064544	     -7.48773585	     -3.94803023	     -0.02326277	      1.28548652	      0.21329008	     53.78280025	      2.24461726	      1.13812785	    103.67650521	      1.80949637	     -0.78270768	      0.00000000	      0.00000000	     41.87086530	    -12.74744256	      3.98226562	     52.16479871	      0.91044749	      8.73048681	      0.00000000	      0.00000000
    121.17333300	      0.46486154	     -7.70715206	     -4.61283325	     -0.02358468	      1.28528849	      0.21388355	     56.04355927	      2.71231364	      1.32554313	    105.63058981	      1.84360158	     -1.22867197	      0.00000000	      0.00000000	     40.01561738	    -13.57520089	      2.61753127	     49.19812556	      0.85866928	      6.80774590	      0.00000000	      0.00000000
    121.18222200	      0.11831144	     -8.17174817	     -4.98541807	     -0.02386665	      1.28509712	      0.21389615	     58.29386907	      3.04641745	      1.04652990	    107.30983955	      1.87291002	     -1.60647423	      0.00000000	      0.00000000	     38.47102308	    -14.34432748	      1.73651197	     46.56254998	      0.81266981	      5.16950404	      0.00000000	      0.00000000
    121.19111100	     -0.27578055	     -8.58302574	     -5.30017976	     -0.02421456	      1.28485481	      0.21386438	     60.59974762	      3.27833563	      0.73586349	    108.80980211	      1.89908931	     -1.98372770	      0.00000000	      0.00000000	     37.13936295	    -15.01363823	      0.89864442	     44.22759917	      0.77191723	      3.35871525	      0.00000000	      0.00000000
    121.20000000	     -0.64473613	     -9.05232652	     -5.52800232	     -0.02461171	      1.28473510	      0.21372814	     62.82561698	      3.45804540	      0.29596636	    110.08445955	      1.92133627	     -2.30735519	      0.00000000	      0.00000000	     35.96724032	    -15.67667650	      0.19123896	     42.22258169	      0.73692307	      1.44091108	      0.00000000	      0.00000000
    121.20888900	     -1.06576457	     -9.14936894	     -5.81268789	     -0.02497490	      1.28447202	      0.21372425	     65.15678081	      3.45963698	      0.18714317	    111.24480085	      1.94158805	     -2.66249357	      0.00000000	      0.00000000	     34.92100739	    -16.00808278	     -0.69730807	     40.50923317	      0.70701950	     -0.35246394	      0.00000000	      0.00000000
    121.21777800	     -1.40342716	     -9.38312280	     -6.00564217	     -0.02538080	      1.28438611	      0.21362495	     67.29968461	      3.47751368	     -0.10334836	    112.15432749	      1.95746229	     -2.93607348	      0.00000000	      0.00000000	     33.98810162	    -16.41220160	     -1.38077687	     39.16755507	      0.68360280	     -2.11343074	      0.00000000	      0.00000000
    121.22666700	     -1.75556190	     -9.45875633	     -6.18890805	     -0.02570092	      1.28429735	      0.21356758	     69.40223053	      3.42328886	     -0.26414936	    112.86901609	      1.96993595	     -3.19023426	      0.00000000	      0.00000000	     33.18809066	    -16.65662985	     -2.05244084	     38.16554039	      0.66611434	     -3.63034626	      0.00000000	      0.00000000
    121.23555600	     -1.96619135	     -9.67417236	     -6.29770423	     -0.02602473	      1.28446778	      0.21336963	     71.20798721	      3.39886116	     -0.58442693	    113.31393375	      1.97770123	     -3.34236646	      0.00000000	      0.00000000	     32.39462260	    -16.96799910	     -2.46316865	     37.50519738	      0.65458918	     -4.77629695	      0.00000000	      0.00000000
    121.24444400	     -2.24225736	     -9.71385114	     -6.44408337	     -0.02628170	      1.28443078	      0.21341603	     73.01859553	      3.37870544	     -0.73301986	    113.59421436	      1.98259305	     -3.50868472	      0.00000000	      0.00000000	     31.83687486	    -17.17094024	     -2.99036872	     37.27482194	      0.65056837	     -5.95835802	      0.00000000	      0.00000000
    121.25333300	     -2.46117921	     -9.75506868	     -6.55294383	     -0.02654952	      1.28442564	      0.21341557	     74.63019209	      3.36038534	     -0.90384138	    113.63145565	      1.98324303	     -3.59148903	      0.00000000	      0.00000000	     31.36097063	    -17.32488037	     -3.27212334	     37.40645983	      0.65286589	     -6.62997528	      0.00000000	      0.00000000
